<?xml version="1.0" encoding="utf-8"?><!-- Uploaded to: SVG Repo, www.svgrepo.com, Generator: SVG Repo Mixer Tools -->
<svg width="800px" height="800px" viewBox="0 0 24 24" xmlns="http://www.w3.org/2000/svg" fill="none"><path stroke="#000000" stroke-linecap="round" stroke-linejoin="round" stroke-width="2" d="M22 19h-6"/><path fill="#000000" fill-rule="evenodd" d="M6 2a3 3 0 0 0-3 3v14a3 3 0 0 0 3 3h7.803A6 6 0 0 1 21 13.341V5a3 3 0 0 0-3-3H6zm2 10V5a1 1 0 0 1 1-1h4a1 1 0 0 1 1 1v7l-2.293-2.293a1 1 0 0 0-1.414 0L8 12z" clip-rule="evenodd"/></svg>